<svg xmlns="http://www.w3.org/2000/svg" xmlns:xlink="http://www.w3.org/1999/xlink" viewBox="0 0 1024 1024" width="24" height="24"><defs><linearGradient id="a" x1="542.72" x2="542.72" y1="924.04" y2="1.218" gradientUnits="userSpaceOnUse"><stop offset="0" stop-color="#fa9c39"/><stop offset=".028" stop-color="#ee9436"/><stop offset=".185" stop-color="#b06e28"/><stop offset=".341" stop-color="#7a4c1c"/><stop offset=".491" stop-color="#4e3112"/><stop offset=".635" stop-color="#2c1c0a"/><stop offset=".771" stop-color="#140c05"/><stop offset=".896" stop-color="#050301"/><stop offset="1"/></linearGradient><linearGradient xlink:href="#a" id="c" x1="542.72" x2="542.72" y1="847.138" y2="78.12"/><filter id="b" width="140%" height="140%" x="-20%" y="-20%"><feGaussianBlur in="SourceAlpha" result="blur" stdDeviation="4"/><feOffset dx="4" dy="4" in="blur" result="offsetBlur"/><feSpecularLighting in="blur" result="specOut" specularExponent="10" surfaceScale="5"><fePointLight x="-5000" y="-10000" z="-20000"/></feSpecularLighting><feComposite in="specOut" in2="SourceAlpha" operator="in" result="specOut"/><feComposite in="SourceGraphic" in2="specOut" k2="1" k3="1" operator="arithmetic" result="litPaint"/><feMerge><feMergeNode in="offsetBlur"/><feMergeNode in="litPaint"/></feMerge></filter></defs><g data-name="W Mark"><path d="M542.72 28.902A431.573 431.573 0 0 1 785.2 102.96a435.071 435.071 0 0 1 157.173 190.851 433.12 433.12 0 0 1-39.984 411.299 435.07 435.07 0 0 1-190.852 157.172 433.12 433.12 0 0 1-411.299-39.984 435.071 435.071 0 0 1-157.172-190.852 433.12 433.12 0 0 1 39.984-411.299A435.074 435.074 0 0 1 373.902 62.975 430.987 430.987 0 0 1 542.72 28.902m0-27.684c-254.83 0-461.41 206.58-461.41 461.41S287.89 924.04 542.72 924.04s461.412-206.58 461.412-461.411S797.55 1.218 542.719 1.218Z" style="filter:url(#b);fill:url(#linear-gradient)"/><path d="M158.21 462.614c0 152.19 88.439 283.723 216.716 346.043L191.505 306.134a383.014 383.014 0 0 0-33.295 156.48Zm644.085-19.392c0-47.535-17.074-80.435-31.698-106.039-19.493-31.688-37.77-58.496-37.77-90.183 0-35.339 26.8-68.24 64.57-68.24 1.706 0 3.322.205 4.979.311A383.074 383.074 0 0 0 542.72 78.12c-134.34 0-252.514 68.928-321.269 173.302 9.028.286 17.535.467 24.747.467 40.21 0 102.48-4.888 102.48-4.888 20.718-1.214 23.167 29.238 2.46 31.686 0 0-20.838 2.44-44.004 3.654L447.15 698.833l84.158-252.359-59.902-164.133c-20.717-1.214-40.33-3.654-40.33-3.654-20.727-1.224-18.298-32.9 2.439-31.687 0 0 63.485 4.889 101.266 4.889 40.21 0 102.49-4.889 102.49-4.889 20.728-1.213 23.167 29.239 2.45 31.687 0 0-20.857 2.44-44.004 3.654l138.957 413.32 39.667-125.69c17.624-54.93 27.955-93.848 27.955-126.749Zm-252.82 53.025L434.091 831.471a384.673 384.673 0 0 0 236.323-6.133 35.069 35.069 0 0 1-2.76-5.3Zm330.664-218.092a295.358 295.358 0 0 1 2.585 39.536c0 39.003-7.308 82.865-29.249 137.717L736.04 794.956c114.314-66.645 191.19-190.49 191.19-332.342a382.678 382.678 0 0 0-47.09-184.459Z" style="fill:url(#c);filter:url(#AI_BevelShadow_1)"/></g><path d="M1.907 636.76c-.15 7.045 5.245 12.14 12.589 11.99 97.57-2.847 187.195 33.423 257.636 103.865 70.74 70.74 107.462 160.817 104.015 258.086 0 6.894 5.095 11.99 12.288 11.69l51.56.002c6.443-.151 10.49-4.198 11.24-10.043 10.341-100.866-34.622-227.062-123.199-315.639S113.264 562.872 12.398 573.513c-5.845.75-9.742 4.946-10.042 11.241Zm-.45 161.117c.15 7.644 5.395 11.99 13.188 11.69 49.31-2.547 106.113 17.386 144.48 56.054 38.969 38.668 58.152 95.62 56.055 145.379-.3 7.494 4.348 12.142 11.84 12.14l58.002.15a10.368 10.368 0 0 0 10.94-9.743c6.594-64.447-21.432-144.63-80.782-203.98S75.646 722.19 11.05 728.635c-5.995.6-9.592 4.796-9.592 11.09Zm7.343 218.07c3.897 3.897 9.293 5.695 23.83 5.845l91.424 1.798c5.546.15 10.042-3.147 10.941-9.142 3.598-27.877-6.295-65.346-32.823-91.874-26.977-26.977-65.046-36.57-93.372-32.523-5.096 1.2-7.644 5.246-7.494 10.79l1.799 91.425c.3 14.388 1.799 19.784 5.696 23.68Z" style="fill:#fa9c39"/></svg>