<svg id="icon" xmlns="http://www.w3.org/2000/svg" xmlns:xlink="http://www.w3.org/1999/xlink" viewBox="0 0 1024 1024"><defs><style>.cls-1{fill:url(#linear-gradient);}.cls-1,.cls-2{filter:url(#AI_BevelShadow_1);}.cls-2{fill:url(#linear-gradient-2);}.cls-3{fill:#fa9c39;}</style><linearGradient id="linear-gradient" x1="542.7195" y1="924.0398" x2="542.7195" y2="1.2178" gradientUnits="userSpaceOnUse"><stop offset="0" stop-color="#fa9c39"/><stop offset="0.0284" stop-color="#ee9436"/><stop offset="0.1853" stop-color="#b06e28"/><stop offset="0.3408" stop-color="#7a4c1c"/><stop offset="0.491" stop-color="#4e3112"/><stop offset="0.6351" stop-color="#2c1c0a"/><stop offset="0.7712" stop-color="#140c05"/><stop offset="0.8963" stop-color="#050301"/><stop offset="1"/></linearGradient><filter id="AI_BevelShadow_1" x="-20%" y="-20%" width="140%" height="140%" name="AI_BevelShadow_1"><feGaussianBlur result="blur" stdDeviation="4" in="SourceAlpha"/><feOffset result="offsetBlur" dx="4" dy="4" in="blur"/><feSpecularLighting result="specOut" specularExponent="10" surfaceScale="5" in="blur"><fePointLight x="-5000" y="-10000" z="-20000"/></feSpecularLighting><feComposite result="specOut" operator="in" in="specOut" in2="SourceAlpha"/><feComposite result="litPaint" k2="1" k3="1" operator="arithmetic" in="SourceGraphic" in2="specOut"/><feMerge><feMergeNode in="offsetBlur"/><feMergeNode in="litPaint"/></feMerge></filter><linearGradient id="linear-gradient-2" x1="542.7195" y1="847.1379" x2="542.7195" y2="78.1195" xlink:href="#linear-gradient"/></defs><g id="W_Mark" data-name="W Mark"><path class="cls-1" d="M542.7194,28.9024A431.5729,431.5729,0,0,1,785.2007,102.96,435.0711,435.0711,0,0,1,942.3729,293.8112,433.12,433.12,0,0,1,902.3887,705.11,435.0706,435.0706,0,0,1,711.5369,862.2822a433.12,433.12,0,0,1-411.2986-39.9841A435.0714,435.0714,0,0,1,143.066,631.446,433.1205,433.1205,0,0,1,183.05,220.1473,435.0735,435.0735,0,0,1,373.9022,62.9754a430.987,430.987,0,0,1,168.8172-34.073m0-27.6846c-254.83,0-461.4111,206.5805-461.4111,461.411S287.8893,924.04,542.7194,924.04s461.4112-206.5809,461.4112-461.411S797.55,1.2178,542.7194,1.2178Z"/><path class="cls-2" d="M158.21,462.6144c0,152.19,88.4388,283.7229,216.7159,346.0424L191.5045,306.1337A383.0143,383.0143,0,0,0,158.21,462.6144ZM802.295,443.2222c0-47.5349-17.0741-80.4352-31.698-106.0392-19.4926-31.6875-37.77-58.4962-37.77-90.1826,0-35.3393,26.7994-68.2406,64.57-68.2406,1.7062,0,3.3219.2056,4.9788.3114A383.0735,383.0735,0,0,0,542.72,78.12c-134.3392,0-252.5139,68.9282-321.269,173.3024,9.0284.2857,17.5347.4666,24.7469.4666,40.2093,0,102.4809-4.8881,102.4809-4.8881,20.7167-1.2139,23.166,29.2383,2.4585,31.6864,0,0-20.837,2.44-44.003,3.6538L447.1491,698.8333l84.158-252.3592L471.4047,282.3406c-20.7168-1.2138-40.33-3.6538-40.33-3.6538-20.727-1.2241-18.2982-32.9,2.4391-31.6864,0,0,63.4854,4.8881,101.266,4.8881,40.2093,0,102.4911-4.8881,102.4911-4.8881,20.7271-1.2139,23.1661,29.2383,2.4493,31.6864,0,0-20.8575,2.44-44.004,3.6538l138.9572,413.321,39.6668-125.6907C791.9638,515.041,802.295,476.1235,802.295,443.2222Zm-252.82,53.0252L434.0907,831.4705a384.6727,384.6727,0,0,0,236.3237-6.1328,35.0685,35.0685,0,0,1-2.76-5.2993Zm330.6643-218.092a295.3579,295.3579,0,0,1,2.5849,39.5357c0,39.0033-7.3078,82.8648-29.2487,137.7165L736.0386,794.9565c114.3142-66.6454,191.19-190.491,191.19-332.3421A382.6785,382.6785,0,0,0,880.1391,278.1554Z"/></g><path id="RSS" class="cls-3" d="M1.9066,636.7608c-.15,7.0444,5.2457,12.14,12.5894,11.99,97.5691-2.8475,187.1947,33.4224,257.6363,103.8639,70.74,70.74,107.4619,160.8177,104.0143,258.0863,0,6.8943,5.095,11.99,12.2889,11.69l51.5592.0015c6.4433-.151,10.49-4.1978,11.24-10.0426C461.576,911.4838,416.6128,785.288,328.036,696.7112S113.264,562.8722,12.398,573.5134c-5.8451.7493-9.7421,4.9458-10.0417,11.2407Zm-.45,161.1166c.15,7.6436,5.3955,11.99,13.1888,11.69,49.3093-2.5479,106.1123,17.3854,144.48,56.0535C198.0939,904.289,217.2768,961.2409,215.18,1011c-.3,7.4944,4.3475,12.1416,11.8392,12.1394l58.0031.1507a10.3677,10.3677,0,0,0,10.94-9.7427c6.5941-64.4472-21.4328-144.6309-80.7822-203.98S75.6457,722.19,11.049,728.6348c-5.9949.5995-9.592,4.7963-9.592,11.09Zm7.3436,218.0692c3.897,3.8969,9.2928,5.6953,23.83,5.8451l91.4241,1.7983c5.5462.1507,10.0415-3.1475,10.941-9.1423,3.5973-27.8766-6.2949-65.3456-32.8229-91.8737-26.9775-26.9774-65.0459-36.57-93.3724-32.5231-5.0956,1.1992-7.6436,5.2457-7.4939,10.791l1.7987,91.4244C3.4055,1006.6544,4.904,1012.05,8.8006,1015.9466Z"/></svg>