<svg id="Logo" xmlns="http://www.w3.org/2000/svg" xmlns:xlink="http://www.w3.org/1999/xlink" viewBox="0 0 1024 1024"><defs><style>.cls-1{fill:url(#linear-gradient);}.cls-1,.cls-2{filter:url(#AI_BevelShadow_1);}.cls-2{fill:url(#linear-gradient-2);}.cls-3{filter:url(#AI_Shadow_1);}.cls-4{fill:#fa9c39;}</style><linearGradient id="linear-gradient" x1="512" y1="845.3333" x2="512" y2="178.6667" gradientUnits="userSpaceOnUse"><stop offset="0" stop-color="#fa9c39"/><stop offset="0.0284" stop-color="#ee9436"/><stop offset="0.1853" stop-color="#b06e28"/><stop offset="0.3408" stop-color="#7a4c1c"/><stop offset="0.491" stop-color="#4e3112"/><stop offset="0.6351" stop-color="#2c1c0a"/><stop offset="0.7712" stop-color="#140c05"/><stop offset="0.8963" stop-color="#050301"/><stop offset="1"/></linearGradient><filter id="AI_BevelShadow_1" x="-20%" y="-20%" width="140%" height="140%" name="AI_BevelShadow_1"><feGaussianBlur result="blur" stdDeviation="4" in="SourceAlpha"/><feOffset result="offsetBlur" dx="4" dy="4" in="blur"/><feSpecularLighting result="specOut" surfaceScale="5" specularExponent="10" in="blur"><fePointLight x="-5000" y="-10000" z="-20000"/></feSpecularLighting><feComposite result="specOut" operator="in" in="specOut" in2="SourceAlpha"/><feComposite result="litPaint" operator="arithmetic" k2="1" k3="1" in="SourceGraphic" in2="specOut"/><feMerge><feMergeNode in="offsetBlur"/><feMergeNode in="litPaint"/></feMerge></filter><linearGradient id="linear-gradient-2" x1="512" y1="789.7777" x2="512" y2="234.2222" xlink:href="#linear-gradient"/><filter id="AI_Shadow_1" name="AI_Shadow_1"><feGaussianBlur result="blur" stdDeviation="2" in="SourceAlpha"/><feOffset result="offsetBlurredAlpha" dx="4" dy="4" in="blur"/><feMerge><feMergeNode in="offsetBlurredAlpha"/><feMergeNode in="SourceGraphic"/></feMerge></filter></defs><g id="W_Mark" data-name="W Mark"><path class="cls-1" d="M512,198.6667a311.7764,311.7764,0,0,1,175.1737,53.5005A314.3052,314.3052,0,0,1,800.7183,390.0426a312.8946,312.8946,0,0,1-28.8855,297.131A314.3065,314.3065,0,0,1,633.9574,800.7182a312.8954,312.8954,0,0,1-297.131-28.8854A314.3046,314.3046,0,0,1,223.2817,633.9572a312.8954,312.8954,0,0,1,28.8854-297.131A314.3069,314.3069,0,0,1,390.0428,223.2818,311.3527,311.3527,0,0,1,512,198.6667m0-20C327.9052,178.6667,178.6667,327.905,178.6667,512S327.9052,845.3333,512,845.3333,845.3333,696.0947,845.3333,512,696.0949,178.6667,512,178.6667Z"/><path class="cls-2" d="M234.2223,511.99c0,109.945,63.89,204.9675,156.56,249.9885L258.2747,398.9446A276.6974,276.6974,0,0,0,234.2223,511.99ZM699.523,497.98c0-34.34-12.3348-58.108-22.8993-76.605-14.0819-22.8917-27.2861-42.2588-27.2861-65.15,0-25.53,19.36-49.2985,46.6465-49.2985,1.2326,0,2.4.1485,3.5968.225A276.74,276.74,0,0,0,512,234.2222c-97.05,0-182.4215,49.7952-232.0916,125.1974,6.5223.2064,12.6674.3371,17.8776.3371,29.0481,0,74.0344-3.5313,74.0344-3.5313,14.9663-.8769,16.7357,21.1223,1.7761,22.891,0,0-15.0531,1.7626-31.7887,2.6395l101.15,300.8833,60.7975-182.31L460.4807,381.7559c-14.9663-.8769-29.135-2.6395-29.135-2.6395-14.9737-.8843-13.2191-23.7679,1.762-22.891,0,0,45.8632,3.5313,73.1567,3.5313,29.0481,0,74.0418-3.5313,74.0418-3.5313,14.9737-.8769,16.7357,21.1223,1.7695,22.891,0,0-15.068,1.7626-31.7895,2.6395l100.3857,298.592,28.6561-90.8017C692.06,549.8637,699.523,521.7489,699.523,497.98ZM516.88,536.2868l-83.356,242.1723a277.8937,277.8937,0,0,0,170.7253-4.43,25.3328,25.3328,0,0,1-1.9936-3.8283Zm238.879-157.5544a213.3622,213.3622,0,0,1,1.8674,28.5615c0,28.1768-5.2793,59.8633-21.13,99.4893L651.6579,752.0807c82.5831-48.1461,138.12-137.6148,138.12-240.0911A276.4558,276.4558,0,0,0,755.7592,378.7324Z"/></g><g id="Regular-L" class="cls-3"><path id="Wifi" class="cls-4" d="M121.3052,637.7967c-.1082,5.089,3.79,8.77,9.0948,8.662,70.486-2.0571,135.2335,24.145,186.122,75.0335,51.1042,51.1043,77.6328,116.1782,75.1422,186.4471a8.1879,8.1879,0,0,0,8.8777,8.4449l37.2475.0011a7.8914,7.8914,0,0,0,8.12-7.2551c7.471-72.8677-25.0114-164.0342-89.0012-228.024S201.7521,584.418,128.8844,592.1054c-4.2227.5413-7.0379,3.573-7.2544,8.12ZM120.98,754.1908c.1082,5.5219,3.8978,8.6618,9.5279,8.4454,35.6221-1.8407,76.6578,12.5595,104.3756,40.4942,28.1513,27.9344,42.0094,69.0777,40.4945,105.0251-.2165,5.4141,3.1408,8.7713,8.5529,8.77l41.9027.1089a7.49,7.49,0,0,0,7.9032-7.0384c4.7637-46.558-15.4835-104.4844-58.3588-147.36S174.5759,699.5127,127.91,704.1685c-4.3309.433-6.93,3.4649-6.93,8.012Zm5.3053,157.5379c2.8152,2.8152,6.7133,4.1144,17.2155,4.2226l66.0467,1.2992a7.4021,7.4021,0,0,0,7.9041-6.6046c2.5987-20.1387-4.5476-47.2071-23.712-66.3716-19.4891-19.4891-46.99-26.4187-67.4543-23.4954-3.6811.8663-5.5219,3.79-5.4137,7.7957l1.2994,66.0469C122.388,905.0158,123.4705,908.9136,126.2856,911.7287Z"/></g></svg>